<!-- <svg xmlns="http://www.w3.org/2000/svg" x="0px" y="0px" width="20" height="16" viewBox="0 0 50 50"
style="fill:#55569e;">
<path d="M32.229,10C39.436,10,40,10.564,40,17.77v14.507C40,39.439,39.44,40,32.277,40H17.723C10.56,40,10,39.439,10,32.277V17.723	C10,10.56,10.56,10,17.723,10H32.229z M19.771,33.25V21.046h-3.793V33.25H19.771z M17.876,19.3c1.219,0,2.21-0.991,2.21-2.212	c0-1.219-0.991-2.21-2.21-2.21c-1.222,0-2.212,0.99-2.212,2.21S16.653,19.3,17.876,19.3z M34,33.25v-6.693	c0-3.286-0.71-5.814-4.55-5.814c-1.845,0-3.082,1.012-3.588,1.971H25.81v-1.668h-3.639V33.25h3.79v-6.038	c0-1.592,0.303-3.133,2.277-3.133c1.945,0,1.971,1.821,1.971,3.236v5.935H34z"></path>
</svg>  -->

<!-- <svg xmlns="http://www.w3.org/2000/svg" width="70" height="70" viewBox="0 0 40 40" style="fill:#55569e;">
  <path d="M32.229,10C39.436,10,40,10.564,40,17.77v14.507C40,39.439,39.44,40,32.277,40H17.723C10.56,40,10,39.439,10,32.277V17.723	C10,10.56,10.56,10,17.723,10H32.229z M19.771,33.25V21.046h-3.793V33.25H19.771z M17.876,19.3c1.219,0,2.21-0.991,2.21-2.212	c0-1.219-0.991-2.21-2.21-2.21c-1.222,0-2.212,0.99-2.212,2.21S16.653,19.3,17.876,19.3z M34,33.25v-6.693	c0-3.286-0.71-5.814-4.55-5.814c-1.845,0-3.082,1.012-3.588,1.971H25.81v-1.668h-3.639V33.25h3.79v-6.038	c0-1.592,0.303-3.133,2.277-3.133c1.945,0,1.971,1.821,1.971,3.236v5.935H34z"></path>
</svg> -->

 <svg xmlns="http://www.w3.org/2000/svg" x="0px" y="0px" width="100" height="100" viewBox="0 0 78 78"
style="fill:#55569e;">
<path d="M46.603,14C57.173,14,58,14.827,58,25.397v21.277C58,57.178,57.178,58,46.674,58H25.326C14.822,58,14,57.178,14,46.674	V25.326C14,14.822,14.822,14,25.326,14H46.603z M30.202,44.705V31.316h-4.161v13.389H30.202z M28.122,29.401	c1.337,0,2.425-1.088,2.425-2.426c0-1.337-1.088-2.425-2.425-2.425c-1.34,0-2.426,1.086-2.426,2.425S26.78,29.401,28.122,29.401z M45.812,44.705v-7.343c0-3.605-0.779-6.378-4.992-6.378c-2.024,0-3.381,1.11-3.937,2.162h-0.056v-1.829h-3.992v13.389h4.158v-6.624	c0-1.746,0.333-3.437,2.498-3.437c2.134,0,2.162,1.997,2.162,3.55v6.511H45.812z"></path>
</svg> 